<?xml version="1.0" encoding="utf-8"?>
<!-- Generator: Adobe Illustrator 26.1.0, SVG Export Plug-In . SVG Version: 6.00 Build 0)  -->
<svg version="1.1" xmlns="http://www.w3.org/2000/svg" xmlns:xlink="http://www.w3.org/1999/xlink" x="0px" y="0px"
	 viewBox="0 0 790 1058.2" style="enable-background:new 0 0 790 1058.2;" xml:space="preserve">
<style type="text/css">
	.st0{fill:#F2A900;stroke:#000000;stroke-width:25;stroke-miterlimit:10;}
	.st1{display:none;fill:none;stroke:#000000;stroke-width:5;stroke-miterlimit:10;}
	.st2{fill:#F2A900;}
	.st3{font-family:'Induction';}
	.st4{font-size:70px;}
	.st5{font-size:25px;}
	.st6{font-family:'morse';}
	.st7{font-size:50px;}
	.st8{stroke:#F2A900;stroke-width:25;stroke-miterlimit:10;}
</style>
<g id="Light">
	<rect id="BASE" width="790" height="1058.2"/>
	<g>
		<path class="st0" d="M139,583.1v152c0,99.4,80.6,180,180,180h152c99.4,0,180-80.6,180-180v-152c0-99.4-80.6-180-180-180H319
			C219.6,403.1,139,483.7,139,583.1z"/>
		<g id="Flame_00000089548381870516766880000009019496738613761940_">
			<path class="st1" d="M335.5,527.8c-15.6,8.5-22.9,18.7-32.6,29.3c-8,8.8-10.2,9.8-26.1,22.2c-1.2,0.9-8.5,6.7-22.9,18.3
				c-43.9,35.5-74.6,64.1-74.6,64.1c-40.5,37.8-49.4,52.1-48.3,68.2c0.2,3.3,0.7,9.1,4.2,15c17.3,28.6,84,16.5,114.5,10.9
				c52.7-9.8,90.7-29,117.2-42.7c28.3-14.6,52.5-30.4,51.6-32c-1.2-2.2-48.8,23.9-122.5,48.8c-28.2,9.5-40.5,12.2-50.1,13.8
				c-14.6,2.5-87.1,14.8-97.9-7.2c-14.6-29.7,89.7-107,133.4-127c23.3-10.6,34.9-16,51.5-16.2c7.7-0.1,17.9,0.8,32-3
				c15.9-4.3,21.5-10.5,23.7-13.3c2.7-3.5,8.3-9.9,6.6-16c-2.4-8.3-16.1-8-17.2-15.2c-0.9-5.8,7.7-8.8,6.8-14.6
				c-1.2-7.1-15.4-9.8-16.8-10.2C364.9,520.3,353.8,517.8,335.5,527.8z"/>
			<path d="M385.7,543.7c-1.2,0.8-2.1,1.5-2.4,1.7c-1,0.8-4.2,3.1-10.8,7.6c-10.4,7.2-60.9,39.9-100.6,70
				c-4.2,3.2-27.4,20.9-53.4,48c-16.1,16.7-27.1,30.7-26,47.8c0.6,9.2,4.5,15.8,5.8,17.9c3,4.7,12.6,17.7,50.9,23.4
				c18.1,2.7,32.7,2.3,56.2,0.6c32.4-2.4,62.5-4.8,107.4-13.2c28-5.3,42-7.9,53.7-11.7c61-20,101.6-60.2,100.7-61.4
				c-0.3-0.4-4.7,2-23.6,14.4c0,0-6.9,4-16.7,9.5c0,0-17.9,9.9-34.7,18.3c-29,14.5-267.2,64-286.5,10.8
				c-7.4-20.6,16.6-60.2,142.7-142.5c9.2-5.5,16.9-10,22.7-13.5c1.5-0.9,4.3-2.5,8.1-4.2c3.5-1.5,6-2.6,9.4-3.3
				c5.8-1.2,8.1-0.1,11.9-2.4c1.2-0.7,3.5-2.1,3.4-3.8c-0.2-2.6-6.3-2.4-7.7-6.1c-1.2-3.4,2.8-6.6,1.1-8.9c-0.9-1.2-2.7-1.3-4.2-1.3
				C390.8,541.3,388.4,542,385.7,543.7z"/>
			<path d="M377,523c-1.2,0.8-2.1,1.5-2.4,1.7c-1,0.8-4.2,3.1-10.8,7.6c-10.4,7.2-60.9,39.9-100.6,70c-4.2,3.2-27.4,20.9-53.4,48
				c-16.1,16.7-27.1,30.7-26,47.8c0.6,9.2,4.5,15.8,5.8,17.9c3,4.7,12.6,17.7,50.9,23.4c18.1,2.7,32.7,2.3,56.2,0.6
				c32.4-2.4,62.5-4.8,107.4-13.2c28-5.3,42-7.9,53.7-11.7c61-20,101.6-60.2,100.7-61.4c-0.3-0.4-4.7,2-23.6,14.4
				c0,0-6.9,4-16.7,9.5c0,0-17.9,9.9-34.7,18.3c-29,14.5-267.2,64-286.5,10.8c-7.4-20.6,16.6-60.2,142.7-142.5
				c9.2-5.5,16.9-10,22.7-13.5c1.5-0.9,4.3-2.5,8.1-4.2c3.5-1.5,6-2.6,9.4-3.3c5.8-1.2,8.1-0.1,11.9-2.4c1.2-0.7,3.5-2.1,3.4-3.8
				c-0.2-2.6-6.3-2.4-7.7-6.1c-1.2-3.4,2.8-6.6,1.1-8.9c-0.9-1.2-2.7-1.3-4.2-1.3C382,520.5,379.7,521.3,377,523z"/>
		</g>
		<g>
			
				<image style="overflow:visible;" width="1718" height="1488" xlink:href="8C9100F5.png"  transform="matrix(0.24 0 0 0.24 274.9039 593.9975)">
			</image>
		</g>
		<path class="st2" d="M95,570v178.1c0,116.5,94.4,210.9,210.9,210.9h178.1c116.5,0,210.9-94.5,210.9-210.9V570
			c0-116.5-94.5-210.9-210.9-210.9H305.9C189.5,359.1,95,453.5,95,570z M139,583.1c0-99.4,80.6-180,180-180h152
			c99.4,0,180,80.6,180,180v152c0,99.4-80.6,180-180,180H319c-99.4,0-180-80.6-180-180V583.1z"/>
		<path class="st2" d="M319,764.7c3.3-11.2,7.7-21.9,12.9-32c4.9-9.8,10.7-18.8,17.1-27.4c46.2-61.4,127.3-90.7,205.2-67.3
			c41.5,12.4,75.6,37.8,99,70.4v27.3c0,100-81.1,181.1-181.1,181.1H338.3C311.6,872.8,303,818,319,764.7z"/>
		<g id="fx_00000033346435663544351780000012543338900305651635_">
			<g>
				<g id="Ship_00000132769685205142595320000004314151005926118284_">
					<path d="M402.6,509.7c-3.9,1.6-6.4,4.6-5.6,6.6c0.8,2,0.6,4-0.4,4.4c-1,0.4-0.8,3.4,0.5,6.6c1.3,3.2,3.1,5.5,4.1,5
						s2.5,1,3.3,3.1c0.8,2.1,0.7,4.2-0.3,4.6c-1,0.4-0.8,3.4,0.5,6.5c1.2,3.2,3.1,5.4,4.1,5c1-0.4,2.5,0.9,3.3,3
						c0.8,2,4.6,2.4,8.5,0.8s7.4,1.6,7.9,7l2.1,23.4c0.5,5.5,5,8.3,10.1,6.2l6.8-2.8c5.1-2.1,10.8-8,12.7-13.2l12.3-34
						c1.9-5.2,7.6-11.1,12.6-13.2l14.3-5.9c5.1-2.1,13.1-6.2,17.7-9.1c0,0,5.7-3.6,13.5-13.4c5.1-6.5,8.4-12.9,10.4-17.9
						c0.1-0.3,0.6-1.9-0.1-3.6c-0.6-1.4-1.8-2-2.1-2.2c-6.2-2.6-16.2-5.8-28.6-5.9c-7.7,0-14.3,1.2-19.4,2.5l-23.5,9.8
						c-5.1,2.1-13.3,1.8-18.2-0.6l-31.6-15.6c-4.9-2.4-13.1-2.7-18.2-0.6l-6.8,2.8c-5.1,2.1-6.5,7.4-3.1,11.7l14.3,18.2
						C406.9,503.3,406.5,508.1,402.6,509.7z"/>
				</g>
			</g>
		</g>
		<text transform="matrix(1 0 0 1 350.0366 814.3441)" class="st3 st4">R4L</text>
	</g>
	<text transform="matrix(1 0 0 1 636.1243 1024.1392)" class="st2 st3 st5">{KTB}</text>
	<text transform="matrix(1 0 0 1 95.0087 126.8102)"><tspan x="0" y="0" class="st2 st3 st4">R</tspan><tspan x="97.3" y="0" class="st2 st6 st7">eady</tspan><tspan x="0" y="84" class="st2 st3 st4">4</tspan><tspan x="0" y="168" class="st2 st3 st4">L</tspan><tspan x="97.3" y="168" class="st2 st6 st7">aunch</tspan></text>
</g>
<g id="Dark">
	<rect id="BASE_00000013881412249904015680000009945407389231088520_" x="1005.2" class="st2" width="790" height="1058.2"/>
	<g>
		<path class="st8" d="M1144.2,583.1v152c0,99.4,80.6,180,180,180h152c99.4,0,180-80.6,180-180v-152c0-99.4-80.6-180-180-180h-152
			C1224.8,403.1,1144.2,483.7,1144.2,583.1z"/>
		<g id="Flame_00000101084361863525998710000016591802195247815828_">
			<path class="st1" d="M1340.7,527.8c-15.6,8.5-22.9,18.7-32.6,29.3c-8,8.8-10.2,9.8-26.1,22.2c-1.2,0.9-8.5,6.7-22.9,18.3
				c-43.9,35.5-74.6,64.1-74.6,64.1c-40.5,37.8-49.4,52.1-48.3,68.2c0.2,3.3,0.7,9.1,4.2,15c17.3,28.6,84,16.5,114.5,10.9
				c52.7-9.8,90.7-29,117.2-42.7c28.3-14.6,52.5-30.4,51.6-32c-1.2-2.2-48.8,23.9-122.5,48.8c-28.2,9.5-40.5,12.2-50.1,13.8
				c-14.6,2.5-87.1,14.8-97.9-7.2c-14.6-29.7,89.7-107,133.4-127c23.3-10.6,34.9-16,51.5-16.2c7.7-0.1,17.9,0.8,32-3
				c15.9-4.3,21.5-10.5,23.7-13.3c2.7-3.5,8.3-9.9,6.6-16c-2.4-8.3-16.1-8-17.2-15.2c-0.9-5.8,7.7-8.8,6.8-14.6
				c-1.2-7.1-15.4-9.8-16.8-10.2C1370.2,520.3,1359,517.8,1340.7,527.8z"/>
			<path class="st2" d="M1391,543.7c-1.2,0.8-2.1,1.5-2.4,1.7c-1,0.8-4.2,3.1-10.8,7.6c-10.4,7.2-60.9,39.9-100.6,70
				c-4.2,3.2-27.4,20.9-53.4,48c-16.1,16.7-27.1,30.7-26,47.8c0.6,9.2,4.5,15.8,5.8,17.9c3,4.7,12.6,17.7,50.9,23.4
				c18.1,2.7,32.7,2.3,56.2,0.6c32.4-2.4,62.5-4.8,107.4-13.2c28-5.3,42-7.9,53.7-11.7c61-20,101.6-60.2,100.7-61.4
				c-0.3-0.4-4.7,2-23.6,14.4c0,0-6.9,4-16.7,9.5c0,0-17.9,9.9-34.7,18.3c-29,14.5-267.2,64-286.5,10.8
				c-7.4-20.6,16.6-60.2,142.7-142.5c9.2-5.5,16.9-10,22.7-13.5c1.5-0.9,4.3-2.5,8.1-4.2c3.5-1.5,6-2.6,9.4-3.3
				c5.8-1.2,8.1-0.1,11.9-2.4c1.2-0.7,3.5-2.1,3.4-3.8c-0.2-2.6-6.3-2.4-7.7-6.1c-1.2-3.4,2.8-6.6,1.1-8.9c-0.9-1.2-2.7-1.3-4.2-1.3
				C1396,541.3,1393.7,542,1391,543.7z"/>
			<path class="st2" d="M1382.3,523c-1.2,0.8-2.1,1.5-2.4,1.7c-1,0.8-4.2,3.1-10.8,7.6c-10.4,7.2-60.9,39.9-100.6,70
				c-4.2,3.2-27.4,20.9-53.4,48c-16.1,16.7-27.1,30.7-26,47.8c0.6,9.2,4.5,15.8,5.8,17.9c3,4.7,12.6,17.7,50.9,23.4
				c18.1,2.7,32.7,2.3,56.2,0.6c32.4-2.4,62.5-4.8,107.4-13.2c28-5.3,42-7.9,53.7-11.7c61-20,101.6-60.2,100.7-61.4
				c-0.3-0.4-4.7,2-23.6,14.4c0,0-6.9,4-16.7,9.5c0,0-17.9,9.9-34.7,18.3c-29,14.5-267.2,64-286.5,10.8
				c-7.4-20.6,16.6-60.2,142.7-142.5c9.2-5.5,16.9-10,22.7-13.5c1.5-0.9,4.3-2.5,8.1-4.2c3.5-1.5,6-2.6,9.4-3.3
				c5.8-1.2,8.1-0.1,11.9-2.4c1.2-0.7,3.5-2.1,3.4-3.8c-0.2-2.6-6.3-2.4-7.7-6.1c-1.2-3.4,2.8-6.6,1.1-8.9c-0.9-1.2-2.7-1.3-4.2-1.3
				C1387.3,520.5,1385,521.3,1382.3,523z"/>
		</g>
		<g>
			
				<image style="overflow:visible;" width="1718" height="1488" xlink:href="8C9100F7.png"  transform="matrix(0.24 0 0 0.24 1280.1318 593.9975)">
			</image>
		</g>
		<path d="M1100.2,570v178.1c0,116.5,94.4,210.9,210.9,210.9h178.1c116.5,0,210.9-94.5,210.9-210.9V570
			c0-116.5-94.4-210.9-210.9-210.9h-178.1C1194.7,359.1,1100.2,453.5,1100.2,570z M1144.2,583.1c0-99.4,80.6-180,180-180h152
			c99.4,0,180,80.6,180,180v152c0,99.4-80.6,180-180,180h-152c-99.4,0-180-80.6-180-180V583.1z"/>
		<path d="M1324.2,764.7c3.3-11.2,7.7-21.9,12.9-32c4.9-9.8,10.7-18.8,17.1-27.4c46.2-61.4,127.3-90.7,205.2-67.3
			c41.5,12.4,75.6,37.8,99,70.4v27.3c0,100-81.1,181.1-181.1,181.1h-133.7C1316.8,872.8,1308.2,818,1324.2,764.7z"/>
		<g id="fx_00000151543947737219178300000012624125946338389407_">
			<g>
				<g id="Ship_00000037666701783352143160000008834826974733133967_">
					<path class="st2" d="M1407.9,509.7c-3.9,1.6-6.4,4.6-5.6,6.6c0.8,2,0.6,4-0.4,4.4c-1,0.4-0.8,3.4,0.5,6.6
						c1.3,3.2,3.1,5.5,4.1,5s2.5,1,3.3,3.1s0.7,4.2-0.3,4.6c-1,0.4-0.8,3.4,0.5,6.5c1.2,3.2,3.1,5.4,4.1,5c1-0.4,2.5,0.9,3.3,3
						c0.8,2,4.6,2.4,8.5,0.8s7.4,1.6,7.9,7l2.1,23.4c0.5,5.5,5,8.3,10.1,6.2l6.8-2.8c5.1-2.1,10.8-8,12.7-13.2l12.3-34
						c1.9-5.2,7.6-11.1,12.6-13.2l14.3-5.9c5.1-2.1,13.1-6.2,17.7-9.1c0,0,5.7-3.6,13.5-13.4c5.1-6.5,8.4-12.9,10.4-17.9
						c0.1-0.3,0.6-1.9-0.1-3.6c-0.6-1.4-1.8-2-2.1-2.2c-6.2-2.6-16.2-5.8-28.6-5.9c-7.7,0-14.3,1.2-19.4,2.5l-23.5,9.8
						c-5.1,2.1-13.3,1.8-18.2-0.6l-31.6-15.6c-4.9-2.4-13.1-2.7-18.2-0.6l-6.8,2.8c-5.1,2.1-6.5,7.4-3.1,11.7l14.3,18.2
						C1412.1,503.3,1411.7,508.1,1407.9,509.7z"/>
				</g>
			</g>
		</g>
		<text transform="matrix(1 0 0 1 1355.2682 814.344)" class="st2 st3 st4">R4L</text>
	</g>
	<text transform="matrix(1 0 0 1 1100.2417 126.8106)"><tspan x="0" y="0" class="st3 st4">R</tspan><tspan x="97.3" y="0" class="st6 st7">eady</tspan><tspan x="0" y="84" class="st3 st4">4</tspan><tspan x="0" y="168" class="st3 st4">L</tspan><tspan x="97.3" y="168" class="st6 st7">aunch</tspan></text>
	<text transform="matrix(1 0 0 1 1641.3556 1024.1398)" class="st3 st5">{KTB}</text>
	<g>
		<path class="st0" d="M127,1488.5v152c0,99.4,80.6,180,180,180h152c99.4,0,180-80.6,180-180v-152c0-99.4-80.6-180-180-180H307
			C207.6,1308.5,127,1389.1,127,1488.5z"/>
		<g id="Flame_00000026132002920016551810000002570553109333558705_">
			<path class="st1" d="M323.4,1433.3c-15.6,8.5-22.9,18.7-32.6,29.3c-8,8.8-10.2,9.8-26.1,22.2c-1.2,0.9-8.5,6.7-22.9,18.3
				c-43.9,35.5-74.6,64.1-74.6,64.1c-40.5,37.8-49.4,52.1-48.3,68.2c0.2,3.3,0.7,9.1,4.2,15c17.3,28.6,84,16.5,114.5,10.9
				c52.7-9.8,90.7-29,117.2-42.7c28.3-14.6,52.5-30.4,51.6-32c-1.2-2.2-48.8,23.9-122.5,48.8c-28.2,9.5-40.5,12.2-50.1,13.8
				c-14.6,2.5-87.1,14.8-97.9-7.2c-14.6-29.7,89.7-107,133.4-127c23.3-10.6,34.9-16,51.5-16.2c7.7-0.1,17.9,0.8,32-3
				c15.9-4.3,21.5-10.5,23.7-13.3c2.7-3.5,8.3-9.9,6.6-16c-2.4-8.3-16.1-8-17.2-15.2c-0.9-5.8,7.7-8.8,6.8-14.6
				c-1.2-7.1-15.4-9.8-16.8-10.2C352.9,1425.7,341.8,1423.3,323.4,1433.3z"/>
			<path d="M373.7,1449.1c-1.2,0.8-2.1,1.5-2.4,1.7c-1,0.8-4.2,3.1-10.8,7.6c-10.4,7.2-60.9,39.9-100.6,70
				c-4.2,3.2-27.4,20.9-53.4,48c-16.1,16.7-27.1,30.7-26,47.8c0.6,9.2,4.5,15.8,5.8,17.9c3,4.7,12.6,17.7,50.9,23.4
				c18.1,2.7,32.7,2.3,56.2,0.6c32.4-2.4,62.5-4.8,107.4-13.2c28-5.3,42-7.9,53.7-11.7c61-20,101.6-60.2,100.7-61.4
				c-0.3-0.4-4.7,2-23.6,14.4c0,0-6.9,4-16.7,9.5c0,0-17.9,9.9-34.7,18.3c-29,14.5-267.2,64-286.5,10.8
				c-7.4-20.6,16.6-60.2,142.7-142.5c9.2-5.5,16.9-10,22.7-13.5c1.5-0.9,4.3-2.5,8.1-4.2c3.5-1.5,6-2.6,9.4-3.3
				c5.8-1.2,8.1-0.1,11.9-2.4c1.2-0.7,3.5-2.1,3.4-3.8c-0.2-2.6-6.3-2.4-7.7-6.1c-1.2-3.4,2.8-6.6,1.1-8.9c-0.9-1.2-2.7-1.3-4.2-1.3
				C378.7,1446.7,376.4,1447.5,373.7,1449.1z"/>
			<path d="M365,1428.4c-1.2,0.8-2.1,1.5-2.4,1.7c-1,0.8-4.2,3.1-10.8,7.6c-10.4,7.2-60.9,39.9-100.6,70c-4.2,3.2-27.4,20.9-53.4,48
				c-16.1,16.7-27.1,30.7-26,47.8c0.6,9.2,4.5,15.8,5.8,17.9c3,4.7,12.6,17.7,50.9,23.4c18.1,2.7,32.7,2.3,56.2,0.6
				c32.4-2.4,62.5-4.8,107.4-13.2c28-5.3,42-7.9,53.7-11.7c61-20,101.6-60.2,100.7-61.4c-0.3-0.4-4.7,2-23.6,14.4
				c0,0-6.9,4-16.7,9.5c0,0-17.9,9.9-34.7,18.3c-29,14.5-267.2,64-286.5,10.8c-7.4-20.6,16.6-60.2,142.7-142.5
				c9.2-5.5,16.9-10,22.7-13.5c1.5-0.9,4.3-2.5,8.1-4.2c3.5-1.5,6-2.6,9.4-3.3c5.8-1.2,8.1-0.1,11.9-2.4c1.2-0.7,3.5-2.1,3.4-3.8
				c-0.2-2.6-6.3-2.4-7.7-6.1c-1.2-3.4,2.8-6.6,1.1-8.9c-0.9-1.2-2.7-1.3-4.2-1.3C370,1426,367.7,1426.7,365,1428.4z"/>
		</g>
		<g>
			
				<image style="overflow:visible;" width="1718" height="1488" xlink:href="8C9100F2.png"  transform="matrix(0.24 0 0 0.24 262.8805 1499.4333)">
			</image>
		</g>
		<path class="st2" d="M83,1475.4v178.1c0,116.5,94.4,210.9,210.9,210.9H472c116.5,0,210.9-94.4,210.9-210.9v-178.1
			c0-116.5-94.5-210.9-210.9-210.9H293.9C177.4,1264.5,83,1359,83,1475.4z M127,1488.5c0-99.4,80.6-180,180-180h152
			c99.4,0,180,80.6,180,180v152c0,99.4-80.6,180-180,180H307c-99.4,0-180-80.6-180-180V1488.5z"/>
		<path class="st2" d="M306.9,1670.2c3.3-11.2,7.7-21.9,12.9-32c4.9-9.8,10.7-18.8,17.1-27.4c46.2-61.4,127.3-90.7,205.2-67.3
			c41.5,12.4,75.6,37.8,99,70.4v27.3c0,100-81.1,181.1-181.1,181.1H326.3C299.6,1778.2,290.9,1723.4,306.9,1670.2z"/>
		<g id="fx_00000121965613846420439650000017219233540803064960_">
			<g>
				<g id="Ship_00000046339193851036575270000002343301282129281938_">
					<path d="M390.6,1415.2c-3.9,1.6-6.4,4.6-5.6,6.6c0.8,2,0.6,4-0.4,4.4c-1,0.4-0.8,3.4,0.5,6.6c1.3,3.2,3.1,5.5,4.1,5
						s2.5,1,3.3,3.1c0.8,2.1,0.7,4.2-0.3,4.6c-1,0.4-0.8,3.4,0.5,6.5c1.2,3.2,3.1,5.4,4.1,5s2.5,0.9,3.3,3s4.6,2.4,8.5,0.8
						c3.9-1.6,7.4,1.6,7.9,7l2.1,23.4c0.5,5.5,5,8.3,10.1,6.2l6.8-2.8c5.1-2.1,10.8-8,12.7-13.2l12.3-34c1.9-5.2,7.6-11.1,12.6-13.2
						l14.3-5.9c5.1-2.1,13.1-6.2,17.7-9.1c0,0,5.7-3.6,13.5-13.4c5.1-6.5,8.4-12.9,10.4-17.9c0.1-0.3,0.6-1.9-0.1-3.6
						c-0.6-1.4-1.8-2-2.1-2.2c-6.2-2.6-16.2-5.8-28.6-5.9c-7.7,0-14.3,1.2-19.4,2.5l-23.5,9.8c-5.1,2.1-13.3,1.8-18.2-0.6
						l-31.6-15.6c-4.9-2.4-13.1-2.7-18.2-0.6l-6.8,2.8c-5.1,2.1-6.5,7.4-3.1,11.7l14.3,18.2C394.8,1408.7,394.5,1413.6,390.6,1415.2
						z"/>
				</g>
			</g>
		</g>
		<text transform="matrix(1 0 0 1 338.0131 1719.7799)" class="st3 st4">R4L</text>
	</g>
	<g>
		<path class="st8" d="M1120.4,1488.5v152c0,99.4,80.6,180,180,180h152c99.4,0,180-80.6,180-180v-152c0-99.4-80.6-180-180-180h-152
			C1201,1308.5,1120.4,1389.1,1120.4,1488.5z"/>
		<g id="Flame_00000044883275545001852620000014538166935585650357_">
			<path class="st1" d="M1316.9,1433.3c-15.6,8.5-22.9,18.7-32.6,29.3c-8,8.8-10.2,9.8-26.1,22.2c-1.2,0.9-8.5,6.7-22.9,18.3
				c-43.9,35.5-74.6,64.1-74.6,64.1c-40.5,37.8-49.4,52.1-48.3,68.2c0.2,3.3,0.7,9.1,4.2,15c17.3,28.6,84,16.5,114.5,10.9
				c52.7-9.8,90.7-29,117.2-42.7c28.3-14.6,52.5-30.4,51.6-32c-1.2-2.2-48.8,23.9-122.5,48.8c-28.2,9.5-40.5,12.2-50.1,13.8
				c-14.6,2.5-87.1,14.8-97.9-7.2c-14.6-29.7,89.7-107,133.4-127c23.3-10.6,34.9-16,51.5-16.2c7.7-0.1,17.9,0.8,32-3
				c15.9-4.3,21.5-10.5,23.7-13.3c2.7-3.5,8.3-9.9,6.6-16c-2.4-8.3-16.1-8-17.2-15.2c-0.9-5.8,7.7-8.8,6.8-14.6
				c-1.2-7.1-15.4-9.8-16.8-10.2C1346.3,1425.7,1335.2,1423.3,1316.9,1433.3z"/>
			<path class="st2" d="M1367.1,1449.1c-1.2,0.8-2.1,1.5-2.4,1.7c-1,0.8-4.2,3.1-10.8,7.6c-10.4,7.2-60.9,39.9-100.6,70
				c-4.2,3.2-27.4,20.9-53.4,48c-16.1,16.7-27.1,30.7-26,47.8c0.6,9.2,4.5,15.8,5.8,17.9c3,4.7,12.6,17.7,50.9,23.4
				c18.1,2.7,32.7,2.3,56.2,0.6c32.4-2.4,62.5-4.8,107.4-13.2c28-5.3,42-7.9,53.7-11.7c61-20,101.6-60.2,100.7-61.4
				c-0.3-0.4-4.7,2-23.6,14.4c0,0-6.9,4-16.7,9.5c0,0-17.9,9.9-34.7,18.3c-29,14.5-267.2,64-286.5,10.8
				c-7.4-20.6,16.6-60.2,142.7-142.5c9.2-5.5,16.9-10,22.7-13.5c1.5-0.9,4.3-2.5,8.1-4.2c3.5-1.5,6-2.6,9.4-3.3
				c5.8-1.2,8.1-0.1,11.9-2.4c1.2-0.7,3.5-2.1,3.4-3.8c-0.2-2.6-6.3-2.4-7.7-6.1c-1.2-3.4,2.8-6.6,1.1-8.9c-0.9-1.2-2.7-1.3-4.2-1.3
				C1372.2,1446.7,1369.8,1447.5,1367.1,1449.1z"/>
			<path class="st2" d="M1358.4,1428.4c-1.2,0.8-2.1,1.5-2.4,1.7c-1,0.8-4.2,3.1-10.8,7.6c-10.4,7.2-60.9,39.9-100.6,70
				c-4.2,3.2-27.4,20.9-53.4,48c-16.1,16.7-27.1,30.7-26,47.8c0.6,9.2,4.5,15.8,5.8,17.9c3,4.7,12.6,17.7,50.9,23.4
				c18.1,2.7,32.7,2.3,56.2,0.6c32.4-2.4,62.5-4.8,107.4-13.2c28-5.3,42-7.9,53.7-11.7c61-20,101.6-60.2,100.7-61.4
				c-0.3-0.4-4.7,2-23.6,14.4c0,0-6.9,4-16.7,9.5c0,0-17.9,9.9-34.7,18.3c-29,14.5-267.2,64-286.5,10.8
				c-7.4-20.6,16.6-60.2,142.7-142.5c9.2-5.5,16.9-10,22.7-13.5c1.5-0.9,4.3-2.5,8.1-4.2c3.5-1.5,6-2.6,9.4-3.3
				c5.8-1.2,8.1-0.1,11.9-2.4c1.2-0.7,3.5-2.1,3.4-3.8c-0.2-2.6-6.3-2.4-7.7-6.1c-1.2-3.4,2.8-6.6,1.1-8.9c-0.9-1.2-2.7-1.3-4.2-1.3
				C1363.4,1426,1361.1,1426.7,1358.4,1428.4z"/>
		</g>
		<g>
			
				<image style="overflow:visible;" width="1718" height="1488" xlink:href="8C9100F3.png"  transform="matrix(0.24 0 0 0.24 1256.2957 1499.4333)">
			</image>
		</g>
		<path d="M1076.4,1475.4v178.1c0,116.5,94.4,210.9,210.9,210.9h178.1c116.5,0,210.9-94.4,210.9-210.9v-178.1
			c0-116.5-94.5-210.9-210.9-210.9h-178.1C1170.9,1264.5,1076.4,1359,1076.4,1475.4z M1120.4,1488.5c0-99.4,80.6-180,180-180h152
			c99.4,0,180,80.6,180,180v152c0,99.4-80.6,180-180,180h-152c-99.4,0-180-80.6-180-180V1488.5z"/>
		<path d="M1300.4,1670.2c3.3-11.2,7.7-21.9,12.9-32c4.9-9.8,10.7-18.8,17.1-27.4c46.2-61.4,127.3-90.7,205.2-67.3
			c41.5,12.4,75.6,37.8,99,70.4v27.3c0,100-81.1,181.1-181.1,181.1h-133.7C1293,1778.2,1284.4,1723.4,1300.4,1670.2z"/>
		<g id="fx_00000050646200402038968570000007906660802949147046_">
			<g>
				<g id="Ship_00000029042408106675781370000002871606443759594671_">
					<path class="st2" d="M1384,1415.2c-3.9,1.6-6.4,4.6-5.6,6.6s0.6,4-0.4,4.4c-1,0.4-0.8,3.4,0.5,6.6c1.3,3.2,3.1,5.5,4.1,5
						c1-0.4,2.5,1,3.3,3.1c0.8,2.1,0.7,4.2-0.3,4.6c-1,0.4-0.8,3.4,0.5,6.5c1.2,3.2,3.1,5.4,4.1,5c1-0.4,2.5,0.9,3.3,3
						s4.6,2.4,8.5,0.8c3.9-1.6,7.4,1.6,7.9,7l2.1,23.4c0.5,5.5,5,8.3,10.1,6.2l6.8-2.8c5.1-2.1,10.8-8,12.7-13.2l12.3-34
						c1.9-5.2,7.6-11.1,12.6-13.2l14.3-5.9c5.1-2.1,13.1-6.2,17.7-9.1c0,0,5.7-3.6,13.5-13.4c5.1-6.5,8.4-12.9,10.4-17.9
						c0.1-0.3,0.6-1.9-0.1-3.6c-0.6-1.4-1.8-2-2.1-2.2c-6.2-2.6-16.2-5.8-28.6-5.9c-7.7,0-14.3,1.2-19.4,2.5l-23.5,9.8
						c-5.1,2.1-13.3,1.8-18.2-0.6l-31.6-15.6c-4.9-2.4-13.1-2.7-18.2-0.6l-6.8,2.8c-5.1,2.1-6.5,7.4-3.1,11.7l14.3,18.2
						C1388.3,1408.7,1387.9,1413.6,1384,1415.2z"/>
				</g>
			</g>
		</g>
		<text transform="matrix(1 0 0 1 1331.4321 1719.7799)" class="st2 st3 st4">R4L</text>
	</g>
</g>
</svg>
