<?xml version="1.0" encoding="utf-8"?>
<!-- Generator: Adobe Illustrator 26.1.0, SVG Export Plug-In . SVG Version: 6.00 Build 0)  -->
<svg version="1.1" id="Layer_1" xmlns="http://www.w3.org/2000/svg" xmlns:xlink="http://www.w3.org/1999/xlink" x="0px" y="0px"
	 viewBox="0 0 512 512" style="enable-background:new 0 0 512 512;" xml:space="preserve">
<style type="text/css">
	.st0{fill:#FFFFFF;}
	.st1{fill:#F2A900;}
</style>
<path d="M512,180v152c0,99.4-80.6,180-180,180H180C80.6,512,0,431.4,0,332V180C0,80.6,80.6,0,180,0h152C431.4,0,512,80.6,512,180z"
	/>
<g>
	<g>
		<g>
			<path class="st0" d="M195.6,56.2l36,27.5l70-12.8l27.8,21.2l-44.8,32l15.4,11.8L261.9,185l-15.4-11.8l-19.7,51.1L199,203.2
				l-5.5-70.3l-36-27.5c-12.4-9.5-26-50.4-27.5-55.1l-2.2-6.6l7,0.4C139.8,44.3,183.2,46.8,195.6,56.2z"/>
			<path class="st0" d="M432.4,302.6c30.4,37.3,34.9,58.6,28.9,66c-6,7.4-28.7,8.8-74.4-9.6c-42.7-17.2-94-47.1-144.5-84l-8.7,10.8
				c51.4,37.6,103.8,68.1,147.6,85.8c32.9,13.3,75.4,25,91.3,5.3c4.5-5.6,5.9-12.6,5.1-20.2c-2.1-19.3-18.2-43.2-33.9-62.4
				c-29.2-35.7-73.5-76.2-124.9-113.8l-8.7,10.8C360.5,228.2,404,267.7,432.4,302.6z"/>
			<polygon class="st0" points="302.9,183.8 293.3,196.2 285.6,190.4 295.3,177.9 			"/>
			<polygon class="st0" points="319.1,163 309.4,175.5 301.7,169.6 311.4,157.1 			"/>
			<polygon class="st0" points="312.9,145.1 274.2,195 266.6,189.1 305.2,139.2 			"/>
			<path class="st1" d="M312.9,512H180C80.6,512,0,431.4,0,332v-27.1c23.3-32.4,57.2-57.7,98.4-70c77.4-23.2,158,5.9,203.9,66.9
				c6.4,8.5,12.1,17.5,17,27.2c5.1,10,9.5,20.7,12.8,31.8C348,413.7,339.4,468.2,312.9,512z"/>
		</g>
	</g>
</g>
</svg>
